<?xml version="1.0" encoding="UTF-8" standalone="no"?>
<!-- Generated by IcoMoon.io -->

<svg
   version="1.1"
   width="26"
   height="20"
   viewBox="0 0 26 20"
   id="svg6"
   sodipodi:docname="folder-open-l.svg"
   inkscape:export-filename="/opt/lampp/htdocs/github/interpolation/folder-open-l.png"
   inkscape:export-xdpi="96"
   inkscape:export-ydpi="96"
   inkscape:version="1.1 (1:1.1+202105261517+ce6663b3b7)"
   xmlns:inkscape="http://www.inkscape.org/namespaces/inkscape"
   xmlns:sodipodi="http://sodipodi.sourceforge.net/DTD/sodipodi-0.dtd"
   xmlns="http://www.w3.org/2000/svg"
   xmlns:svg="http://www.w3.org/2000/svg"
   xmlns:rdf="http://www.w3.org/1999/02/22-rdf-syntax-ns#"
   xmlns:cc="http://creativecommons.org/ns#"
   xmlns:dc="http://purl.org/dc/elements/1.1/">
  <defs
     id="defs10" />
  <sodipodi:namedview
     id="namedview8"
     pagecolor="#ffffff"
     bordercolor="#666666"
     borderopacity="1.0"
     inkscape:pageshadow="2"
     inkscape:pageopacity="0.0"
     inkscape:pagecheckerboard="0"
     showgrid="false"
     fit-margin-top="0"
     fit-margin-left="0"
     fit-margin-right="0"
     fit-margin-bottom="0"
     inkscape:zoom="8.3125"
     inkscape:cx="16.06015"
     inkscape:cy="12.571429"
     inkscape:window-width="1294"
     inkscape:window-height="704"
     inkscape:window-x="72"
     inkscape:window-y="27"
     inkscape:window-maximized="1"
     inkscape:current-layer="svg6" />
  <title
     id="title2">folder-open-l</title>
  <path
     d="M 0.69064739,-7.5e-6 C 0.30957254,-7.5e-6 8.1252634e-4,0.30980457 0,0.69299319 v 0 c 0,0 8.1252634e-4,11.91472081 0,18.60584581 0,0.0016 0,0.0033 0,0.0049 0,0.0016 0,0.0033 0,0.0049 v 0 c 8.1252634e-4,0.01794 0.00162505,0.03424 0.00325011,0.05055 v -0.0033 c 8.1252e-4,0.01386 0.00243757,0.02527 0.0032501,0.03669 v -0.0033 c 0,8.15e-4 0,0.0024 0,0.0041 0,0.0016 0,0.0024 0,0.0041 v 0 c 0.046314,0.341619 0.33476085,0.602513 0.68495971,0.602513 0.0381888,0 0.0747524,-0.0033 0.1113161,-0.009 l -0.004062,8.15e-4 H 20.585355 c 0.03169,0.0049 0.06825,0.0082 0.104816,0.0082 0.123504,0 0.239695,-0.03261 0.339635,-0.08968 l -0.0033,0.0016 c 0.02113,-0.01141 0.03819,-0.02201 0.05443,-0.03343 l -0.0024,0.0016 c 0.0057,-0.0033 0.0082,-0.0049 0.01056,-0.0065 l -0.0033,0.0016 c 0.01056,-0.0073 0.01869,-0.01386 0.02681,-0.02038 l -0.0016,8.15e-4 c 0.02031,-0.01468 0.03737,-0.02935 0.05444,-0.04484 l -8.13e-4,8.15e-4 c 0.108067,-0.09784 0.185257,-0.228283 0.21532,-0.375851 l 8.12e-4,-0.0041 c -8.12e-4,0.0033 0,0.0016 0,0 l 0.0016,-0.0049 C 22.935958,15.272014 25.95612,7.1908098 25.95612,7.1908098 25.983745,7.1182488 26,7.0350885 26,6.9478519 26,6.5654786 25.691239,6.2556665 25.310165,6.2548512 H 21.384068 V 3.7821457 c 0,-0.3823733 -0.30876,-0.6921854 -0.690647,-0.6930007 H 10.978044 L 8.1025127,0.20381623 C 7.9773837,0.07907611 7.805128,0.00162309 7.6149969,0.00162309 c -8.126e-4,0 -8.126e-4,0 -0.00162,0 v 0 z M 1.3804823,1.3851786 h 5.9476928 l 2.8755309,2.8853288 c 0.125129,0.1247401 0.297385,0.2021931 0.487516,0.2021931 8.12e-4,0 8.12e-4,0 0.0016,0 h 9.31074 V 6.2533046 H 5.3066095 c -0.2941345,0 -0.5443926,0.1842567 -0.6443334,0.4443358 l -0.00162,0.00489 -3.2801688,8.7774656 c 0,-6.1465088 0,-13.4401373 0,-14.0940038 z M 5.7860001,7.6384907 H 24.314039 C 23.923213,8.6836988 21.677391,14.69813 20.216468,18.605022 H 1.6868047 Z"
     id="path4"
     style="fill:#ffffff;fill-opacity:1;stroke-width:0.81391" />
  <metadata
     id="metadata827">
    <rdf:RDF>
      <cc:Work
         rdf:about="">
        <dc:title>folder-open-l</dc:title>
      </cc:Work>
    </rdf:RDF>
  </metadata>
</svg>
